<svg width="487" height="79" viewBox="0 0 487 79" fill="none" xmlns="http://www.w3.org/2000/svg">
<rect x="0.473022" y="0.270508" width="485.947" height="78.4902" rx="13.3012" fill="white"/>
<path d="M81.4085 47V42.1584L81.725 43.015L76.1944 33.9648H77.6655L82.5258 41.9163H81.7437L86.6039 33.9648H87.9819L82.4513 43.015L82.7679 42.1584V47H81.4085ZM92.7155 47.0931C91.772 47.0931 90.9216 46.8821 90.1643 46.46C89.4194 46.0255 88.8298 45.4358 88.3953 44.6909C87.9607 43.9336 87.7435 43.0708 87.7435 42.1025C87.7435 41.1217 87.9607 40.2589 88.3953 39.5141C88.8298 38.7692 89.4194 38.1857 90.1643 37.7636C90.9092 37.3415 91.7596 37.1305 92.7155 37.1305C93.6838 37.1305 94.5404 37.3415 95.2853 37.7636C96.0426 38.1857 96.6323 38.7692 97.0543 39.5141C97.4889 40.2589 97.7061 41.1217 97.7061 42.1025C97.7061 43.0708 97.4889 43.9336 97.0543 44.6909C96.6323 45.4358 96.0426 46.0255 95.2853 46.46C94.528 46.8821 93.6714 47.0931 92.7155 47.0931ZM92.7155 45.9199C93.4231 45.9199 94.05 45.7648 94.5963 45.4544C95.1425 45.1316 95.5708 44.6847 95.8812 44.1136C96.204 43.5302 96.3653 42.8598 96.3653 42.1025C96.3653 41.3328 96.204 40.6624 95.8812 40.0913C95.5708 39.5203 95.1425 39.0796 94.5963 38.7692C94.05 38.4464 93.4293 38.285 92.7341 38.285C92.0389 38.285 91.4182 38.4464 90.8719 38.7692C90.3257 39.0796 89.8912 39.5203 89.5684 40.0913C89.2456 40.6624 89.0843 41.3328 89.0843 42.1025C89.0843 42.8598 89.2456 43.5302 89.5684 44.1136C89.8912 44.6847 90.3257 45.1316 90.8719 45.4544C91.4182 45.7648 92.0327 45.9199 92.7155 45.9199ZM104.446 47.0931C103.615 47.0931 102.888 46.9379 102.268 46.6276C101.647 46.3172 101.163 45.8517 100.815 45.2309C100.48 44.6102 100.312 43.8343 100.312 42.9032V37.2236H101.634V42.7543C101.634 43.7971 101.889 44.5854 102.398 45.1192C102.919 45.6406 103.646 45.9013 104.577 45.9013C105.259 45.9013 105.849 45.7648 106.346 45.4916C106.855 45.2061 107.24 44.7964 107.5 44.2626C107.773 43.7288 107.91 43.0894 107.91 42.3446V37.2236H109.232V47H107.966V44.3185L108.171 44.8026C107.86 45.5227 107.376 46.0875 106.718 46.4972C106.073 46.8945 105.315 47.0931 104.446 47.0931ZM112.917 47V37.2236H114.183V39.8865L114.053 39.421C114.326 38.6761 114.785 38.1112 115.431 37.7264C116.076 37.3291 116.877 37.1305 117.833 37.1305V38.4154C117.783 38.4154 117.734 38.4154 117.684 38.4154C117.634 38.403 117.585 38.3968 117.535 38.3968C116.505 38.3968 115.698 38.7133 115.114 39.3465C114.531 39.9672 114.239 40.8548 114.239 42.0094V47H112.917ZM129.417 47.0931C128.399 47.0931 127.505 46.8821 126.736 46.46C125.966 46.0255 125.364 45.4358 124.929 44.6909C124.495 43.9336 124.278 43.0708 124.278 42.1025C124.278 41.1342 124.483 40.2776 124.892 39.5327C125.314 38.7878 125.885 38.2043 126.605 37.7823C127.338 37.3478 128.157 37.1305 129.063 37.1305C129.982 37.1305 130.795 37.3415 131.503 37.7636C132.223 38.1733 132.788 38.7568 133.197 39.5141C133.607 40.2589 133.812 41.1217 133.812 42.1025C133.812 42.1646 133.806 42.2328 133.793 42.3073C133.793 42.3694 133.793 42.4377 133.793 42.5122H125.283V41.5252H133.086L132.564 41.9163C132.564 41.2087 132.409 40.5817 132.099 40.0355C131.801 39.4768 131.391 39.0423 130.87 38.732C130.348 38.4216 129.746 38.2664 129.063 38.2664C128.393 38.2664 127.791 38.4216 127.257 38.732C126.723 39.0423 126.307 39.4768 126.009 40.0355C125.712 40.5941 125.563 41.2335 125.563 41.9535V42.1584C125.563 42.9032 125.724 43.5612 126.047 44.1323C126.382 44.6909 126.841 45.1316 127.425 45.4544C128.021 45.7648 128.697 45.9199 129.455 45.9199C130.05 45.9199 130.603 45.8144 131.112 45.6034C131.633 45.3923 132.08 45.0696 132.453 44.635L133.197 45.4916C132.763 46.013 132.217 46.4103 131.559 46.6834C130.913 46.9565 130.199 47.0931 129.417 47.0931ZM148.719 37.1305C149.513 37.1305 150.202 37.2857 150.786 37.596C151.382 37.894 151.841 38.3533 152.164 38.974C152.499 39.5948 152.667 40.3769 152.667 41.3204V47H151.345V41.4507C151.345 40.4203 151.096 39.6444 150.6 39.123C150.116 38.5892 149.427 38.3223 148.533 38.3223C147.862 38.3223 147.279 38.4651 146.782 38.7506C146.298 39.0237 145.919 39.4272 145.646 39.961C145.386 40.4824 145.255 41.1155 145.255 41.8604V47H143.933V41.4507C143.933 40.4203 143.685 39.6444 143.188 39.123C142.692 38.5892 141.997 38.3223 141.103 38.3223C140.445 38.3223 139.867 38.4651 139.371 38.7506C138.874 39.0237 138.489 39.4272 138.216 39.961C137.956 40.4824 137.825 41.1155 137.825 41.8604V47H136.503V37.2236H137.769V39.8679L137.565 39.4023C137.862 38.6947 138.34 38.1423 138.998 37.745C139.669 37.3353 140.457 37.1305 141.363 37.1305C142.319 37.1305 143.132 37.3726 143.803 37.8567C144.473 38.3285 144.908 39.0423 145.106 39.9982L144.585 39.7934C144.87 38.9989 145.373 38.3595 146.093 37.8754C146.826 37.3788 147.701 37.1305 148.719 37.1305ZM162.379 47V44.8399L162.323 44.4861V40.8735C162.323 40.0417 162.087 39.4023 161.615 38.9554C161.156 38.5085 160.467 38.285 159.548 38.285C158.915 38.285 158.313 38.3906 157.742 38.6016C157.171 38.8127 156.687 39.092 156.29 39.4396L155.694 38.4526C156.19 38.0305 156.786 37.7078 157.481 37.4843C158.177 37.2484 158.909 37.1305 159.679 37.1305C160.945 37.1305 161.919 37.4471 162.602 38.0802C163.298 38.7009 163.645 39.6506 163.645 40.9293V47H162.379ZM159.008 47.0931C158.276 47.0931 157.637 46.9752 157.09 46.7393C156.556 46.491 156.147 46.1558 155.861 45.7337C155.576 45.2992 155.433 44.8026 155.433 44.244C155.433 43.735 155.551 43.2757 155.787 42.866C156.035 42.4439 156.432 42.1087 156.979 41.8604C157.537 41.5997 158.282 41.4694 159.213 41.4694H162.584V42.4563H159.25C158.307 42.4563 157.649 42.6239 157.276 42.9591C156.916 43.2943 156.736 43.7102 156.736 44.2067C156.736 44.7654 156.954 45.2123 157.388 45.5475C157.823 45.8827 158.431 46.0503 159.213 46.0503C159.958 46.0503 160.597 45.8827 161.131 45.5475C161.677 45.1999 162.075 44.7033 162.323 44.0578L162.621 44.9702C162.373 45.6158 161.938 46.131 161.317 46.5158C160.709 46.9007 159.939 47.0931 159.008 47.0931ZM167.236 47V37.2236H168.558V47H167.236ZM167.907 35.0635C167.633 35.0635 167.404 34.9704 167.218 34.7842C167.031 34.5979 166.938 34.3745 166.938 34.1138C166.938 33.8531 167.031 33.6358 167.218 33.462C167.404 33.2758 167.633 33.1827 167.907 33.1827C168.18 33.1827 168.409 33.2696 168.596 33.4434C168.782 33.6172 168.875 33.8345 168.875 34.0952C168.875 34.3683 168.782 34.5979 168.596 34.7842C168.422 34.9704 168.192 35.0635 167.907 35.0635ZM172.237 47V33.1827H173.559V47H172.237Z" fill="#39425D"/>
<path d="M40.827 37.126L46.8082 42.3596C47.3097 42.7984 48.0585 42.7984 48.56 42.3596L54.5413 37.126" stroke="#39425D" stroke-width="1.33012" stroke-linecap="round"/>
<rect x="36.9206" y="29.7915" width="22.6699" height="22.6699" rx="5.98555" stroke="#39425D" stroke-width="1.33012"/>
</svg>
