<svg width="177" height="174" viewBox="0 0 177 174" fill="none" xmlns="http://www.w3.org/2000/svg">
<rect width="177" height="174" fill="#1E1E1E"/>
<g id="Desktop - 1" clip-path="url(#clip0_0_1)">
<rect width="1440" height="6406" transform="translate(-1108 -3760)" fill="white"/>
<g id="Rectangle 16" filter="url(#filter0_d_0_1)">
<rect x="-126.403" y="83" width="430" height="405" rx="20" fill="white"/>
</g>
<g id="Ellipse 7" filter="url(#filter1_d_0_1)">
<ellipse cx="88.5973" cy="77" rx="48" ry="47" fill="#F15A2B"/>
</g>
<path id="Vector" d="M66.5973 95H74.4155V72.2H66.5973V95ZM109.597 74.1C109.597 72.01 107.838 70.3 105.688 70.3H93.355L95.2118 61.617L95.2705 61.009C95.2705 60.23 94.9382 59.508 94.4105 58.995L92.3387 57L79.4777 69.521C78.7546 70.205 78.3246 71.155 78.3246 72.2V91.2C78.3246 93.29 80.0837 95 82.2337 95H99.8246C101.447 95 102.835 94.05 103.421 92.682L109.324 79.287C109.5 78.85 109.597 78.394 109.597 77.9V74.1Z" fill="white"/>
</g>
<defs>
<filter id="filter0_d_0_1" x="-186.403" y="33" width="550" height="525" filterUnits="userSpaceOnUse" color-interpolation-filters="sRGB">
<feFlood flood-opacity="0" result="BackgroundImageFix"/>
<feColorMatrix in="SourceAlpha" type="matrix" values="0 0 0 0 0 0 0 0 0 0 0 0 0 0 0 0 0 0 127 0" result="hardAlpha"/>
<feOffset dy="10"/>
<feGaussianBlur stdDeviation="30"/>
<feColorMatrix type="matrix" values="0 0 0 0 0.149156 0 0 0 0 0.175824 0 0 0 0 0.4625 0 0 0 0.08 0"/>
<feBlend mode="normal" in2="BackgroundImageFix" result="effect1_dropShadow_0_1"/>
<feBlend mode="normal" in="SourceGraphic" in2="effect1_dropShadow_0_1" result="shape"/>
</filter>
<filter id="filter1_d_0_1" x="0.59729" y="0" width="176" height="174" filterUnits="userSpaceOnUse" color-interpolation-filters="sRGB">
<feFlood flood-opacity="0" result="BackgroundImageFix"/>
<feColorMatrix in="SourceAlpha" type="matrix" values="0 0 0 0 0 0 0 0 0 0 0 0 0 0 0 0 0 0 127 0" result="hardAlpha"/>
<feOffset dy="10"/>
<feGaussianBlur stdDeviation="20"/>
<feColorMatrix type="matrix" values="0 0 0 0 0.212 0 0 0 0 0.238778 0 0 0 0 0.533333 0 0 0 0.06 0"/>
<feBlend mode="normal" in2="BackgroundImageFix" result="effect1_dropShadow_0_1"/>
<feBlend mode="normal" in="SourceGraphic" in2="effect1_dropShadow_0_1" result="shape"/>
</filter>
<clipPath id="clip0_0_1">
<rect width="1440" height="6406" fill="white" transform="translate(-1108 -3760)"/>
</clipPath>
</defs>
</svg>
